<svg width="512" height="512" viewBox="0 0 512 512" fill="none" xmlns="http://www.w3.org/2000/svg">
<rect width="512" height="512" rx="256" fill="black"/>
<path d="M254.47 103C261.213 103 266.442 108.535 266.85 115.266L276.578 275.77C277.051 283.574 283.517 289.66 291.335 289.66C300.206 289.66 307.079 281.903 306.012 273.097L290.38 144.134C288.269 126.725 304.766 113.248 319.179 123.238C349.393 144.182 369.22 179.385 369.22 219.28C369.22 231.423 367.381 243.131 363.973 254.135C363.922 254.301 364.046 254.47 364.22 254.47C364.41 254.47 364.534 254.668 364.452 254.839C363.669 256.462 362.89 258.059 362.119 259.633C358.754 268.847 354.272 277.511 348.836 285.455C324.479 330.383 304.094 354.598 275.004 395.836C264.993 410.027 243.721 410.17 233.603 396.056C202.461 352.612 182.26 328.249 158.44 282.956C153.85 275.861 150.005 268.227 147.017 260.168C146.179 258.422 145.334 256.646 144.483 254.839C144.402 254.667 144.528 254.47 144.718 254.47C144.893 254.47 145.017 254.3 144.966 254.133C141.558 243.13 139.72 231.423 139.72 219.28C139.72 179.386 159.546 144.184 189.759 123.24C204.171 113.249 220.668 126.726 218.558 144.136L202.927 273.097C201.86 281.903 208.734 289.66 217.604 289.66C225.422 289.66 231.888 283.574 232.361 275.77L242.088 115.267C242.496 108.536 247.726 103 254.47 103Z" fill="#FA5268"/>
<path d="M254.47 103C261.213 103 266.442 108.535 266.85 115.266L276.578 275.77C277.051 283.574 283.517 289.66 291.335 289.66C300.206 289.66 307.079 281.903 306.012 273.097L290.38 144.134C288.269 126.725 304.766 113.248 319.179 123.238C349.393 144.182 369.22 179.385 369.22 219.28C369.22 231.423 367.381 243.131 363.973 254.135C363.922 254.301 364.046 254.47 364.22 254.47C364.41 254.47 364.534 254.668 364.452 254.839C363.669 256.462 362.89 258.059 362.119 259.633C358.754 268.847 354.272 277.511 348.836 285.455C324.479 330.383 304.094 354.598 275.004 395.836C264.993 410.027 243.721 410.17 233.603 396.056C202.461 352.612 182.26 328.249 158.44 282.956C153.85 275.861 150.005 268.227 147.017 260.168C146.179 258.422 145.334 256.646 144.483 254.839C144.402 254.667 144.528 254.47 144.718 254.47C144.893 254.47 145.017 254.3 144.966 254.133C141.558 243.13 139.72 231.423 139.72 219.28C139.72 179.386 159.546 144.184 189.759 123.24C204.171 113.249 220.668 126.726 218.558 144.136L202.927 273.097C201.86 281.903 208.734 289.66 217.604 289.66C225.422 289.66 231.888 283.574 232.361 275.77L242.088 115.267C242.496 108.536 247.726 103 254.47 103Z" fill="url(#paint0_linear_2093_123)"/>
<path d="M254.47 103C261.213 103 266.442 108.535 266.85 115.266L276.578 275.77C277.051 283.574 283.517 289.66 291.335 289.66C300.206 289.66 307.079 281.903 306.012 273.097L290.38 144.134C288.269 126.725 304.766 113.248 319.179 123.238C349.393 144.182 369.22 179.385 369.22 219.28C369.22 231.423 367.381 243.131 363.973 254.135C363.922 254.301 364.046 254.47 364.22 254.47C364.41 254.47 364.534 254.668 364.452 254.839C363.669 256.462 362.89 258.059 362.119 259.633C358.754 268.847 354.272 277.511 348.836 285.455C324.479 330.383 304.094 354.598 275.004 395.836C264.993 410.027 243.721 410.17 233.603 396.056C202.461 352.612 182.26 328.249 158.44 282.956C153.85 275.861 150.005 268.227 147.017 260.168C146.179 258.422 145.334 256.646 144.483 254.839C144.402 254.667 144.528 254.47 144.718 254.47C144.893 254.47 145.017 254.3 144.966 254.133C141.558 243.13 139.72 231.423 139.72 219.28C139.72 179.386 159.546 144.184 189.759 123.24C204.171 113.249 220.668 126.726 218.558 144.136L202.927 273.097C201.86 281.903 208.734 289.66 217.604 289.66C225.422 289.66 231.888 283.574 232.361 275.77L242.088 115.267C242.496 108.536 247.726 103 254.47 103Z" fill="white"/>
<path d="M254.47 103C261.213 103 266.442 108.535 266.85 115.266L276.578 275.77C277.051 283.574 283.517 289.66 291.335 289.66C300.206 289.66 307.079 281.903 306.012 273.097L290.38 144.134C288.269 126.725 304.766 113.248 319.179 123.238C349.393 144.182 369.22 179.385 369.22 219.28C369.22 231.423 367.381 243.131 363.973 254.135C363.922 254.301 364.046 254.47 364.22 254.47C364.41 254.47 364.534 254.668 364.452 254.839C363.669 256.462 362.89 258.059 362.119 259.633C358.754 268.847 354.272 277.511 348.836 285.455C324.479 330.383 304.094 354.598 275.004 395.836C264.993 410.027 243.721 410.17 233.603 396.056C202.461 352.612 182.26 328.249 158.44 282.956C153.85 275.861 150.005 268.227 147.017 260.168C146.179 258.422 145.334 256.646 144.483 254.839C144.402 254.667 144.528 254.47 144.718 254.47C144.893 254.47 145.017 254.3 144.966 254.133C141.558 243.13 139.72 231.423 139.72 219.28C139.72 179.386 159.546 144.184 189.759 123.24C204.171 113.249 220.668 126.726 218.558 144.136L202.927 273.097C201.86 281.903 208.734 289.66 217.604 289.66C225.422 289.66 231.888 283.574 232.361 275.77L242.088 115.267C242.496 108.536 247.726 103 254.47 103Z" fill="url(#paint1_linear_2093_123)"/>
<defs>
<linearGradient id="paint0_linear_2093_123" x1="139.72" y1="254.78" x2="369.22" y2="254.78" gradientUnits="userSpaceOnUse">
<stop stop-color="#E48709"/>
<stop offset="1" stop-color="#F59E0C"/>
</linearGradient>
<linearGradient id="paint1_linear_2093_123" x1="254.47" y1="103" x2="254.47" y2="406.561" gradientUnits="userSpaceOnUse">
<stop offset="0.1" stop-color="#FFA806"/>
<stop offset="0.5" stop-color="#FFF759"/>
<stop offset="0.9" stop-color="#FF4346"/>
</linearGradient>
</defs>
</svg>
