<svg width="410" height="100" viewBox="0 0 410 100" fill="none" xmlns="http://www.w3.org/2000/svg">
<path d="M98.9092 78.835C94.7344 78.835 92.2734 76.2861 92.2734 71.9355V21.4863C92.2734 17.1357 94.7344 14.5869 98.9092 14.5869H128.572C132.22 14.5869 134.593 16.6523 134.593 20.0801C134.593 23.5078 132.176 25.5732 128.572 25.5732H105.545V42.5361H126.419C129.847 42.5361 132.088 44.5137 132.088 47.7656C132.088 51.0615 129.891 53.0391 126.419 53.0391H105.545V71.9355C105.545 76.2861 103.084 78.835 98.9092 78.835Z" fill="#FFFFFF"/>
<path d="M159.072 79.0107C144.834 79.0107 135.737 69.8701 135.737 54.4014C135.737 39.1523 144.966 29.8799 159.072 29.8799C173.179 29.8799 182.407 39.1084 182.407 54.4014C182.407 69.9141 173.31 79.0107 159.072 79.0107ZM159.072 69.2109C165.356 69.2109 169.355 63.8936 169.355 54.4453C169.355 45.085 165.312 39.6797 159.072 39.6797C152.832 39.6797 148.745 45.085 148.745 54.4453C148.745 63.8936 152.744 69.2109 159.072 69.2109Z" fill="#FFFFFF"/>
<path d="M193.659 78.9229C189.792 78.9229 187.243 76.5059 187.243 72.2432V36.3838C187.243 32.2969 189.748 29.9238 193.439 29.9238C197.043 29.9238 199.504 32.2969 199.504 36.3838V39.46H199.767C200.998 33.6152 204.865 30.1436 209.567 30.1436C211.281 30.1436 212.643 30.5391 213.566 31.3301C214.796 32.2969 215.412 33.8789 215.412 36.0762C215.412 38.0977 214.796 39.6357 213.566 40.6904C212.336 41.7451 210.49 42.3164 207.985 42.3604C202.14 42.4482 200.075 45.7441 200.075 51.3252V72.2432C200.075 76.5059 197.57 78.9229 193.659 78.9229Z" fill="#FFFFFF"/>
<path d="M224.95 78.9229C221.214 78.9229 218.534 76.6377 218.534 72.2432V20.3438C218.534 15.9492 221.214 13.6201 224.95 13.6201C228.729 13.6201 231.366 15.9492 231.366 20.3438V49.5674H231.541L248.592 32.4727C250.306 30.6709 251.756 29.9238 253.69 29.9238C256.986 29.9238 259.403 32.3408 259.403 35.5049C259.403 37.4385 258.831 38.625 256.986 40.3389L244.989 51.6768L258.128 68.4199C259.535 70.3096 259.93 71.4521 259.93 73.1221C259.93 76.5498 257.425 78.9229 253.822 78.9229C251.097 78.9229 249.559 77.9561 247.538 74.9238L235.453 58.9277L231.366 62.707V72.2432C231.366 76.6377 228.729 78.9229 224.95 78.9229Z" fill="#FFFFFF"/>
<path d="M271.577 78.9229C267.842 78.9229 265.161 76.6377 265.161 72.2432V20.3438C265.161 15.9492 267.842 13.6201 271.577 13.6201C275.357 13.6201 277.993 15.9492 277.993 20.3438V72.2432C277.993 76.6377 275.357 78.9229 271.577 78.9229Z" fill="#FFFFFF"/>
<path d="M306.472 79.0107C292.233 79.0107 283.137 69.8701 283.137 54.4014C283.137 39.1523 292.365 29.8799 306.472 29.8799C320.578 29.8799 329.807 39.1084 329.807 54.4014C329.807 69.9141 320.71 79.0107 306.472 79.0107ZM306.472 69.2109C312.756 69.2109 316.755 63.8936 316.755 54.4453C316.755 45.085 312.712 39.6797 306.472 39.6797C300.231 39.6797 296.145 45.085 296.145 54.4453C296.145 63.8936 300.144 69.2109 306.472 69.2109Z" fill="#FFFFFF"/>
<path d="M341.058 78.9229C337.191 78.9229 334.642 76.5059 334.642 72.2432V36.3838C334.642 32.2969 337.147 29.9238 340.839 29.9238C344.442 29.9238 346.903 32.2969 346.903 36.3838V39.46H347.167C348.397 33.6152 352.264 30.1436 356.967 30.1436C358.68 30.1436 360.043 30.5391 360.966 31.3301C362.196 32.2969 362.811 33.8789 362.811 36.0762C362.811 38.0977 362.196 39.6357 360.966 40.6904C359.735 41.7451 357.889 42.3164 355.385 42.3604C349.54 42.4482 347.474 45.7441 347.474 51.3252V72.2432C347.474 76.5059 344.97 78.9229 341.058 78.9229Z" fill="#FFFFFF"/>
<path d="M385.709 79.0107C370.987 79.0107 362.33 69.9141 362.33 54.665C362.33 39.5039 371.163 29.8799 385.093 29.8799C398.453 29.8799 407.418 39.0205 407.418 51.8086C407.418 55.3682 405.396 57.3896 401.837 57.3896H374.942V57.9609C374.942 64.9482 379.161 69.5186 385.665 69.5186C390.367 69.5186 393.443 67.9365 396.915 63.8496C398.277 62.4434 399.42 61.96 401.089 61.96C403.858 61.96 406.099 63.7178 406.099 66.6621C406.099 67.6729 405.792 68.7275 405.22 69.7822C402.1 75.583 394.805 79.0107 385.709 79.0107ZM375.074 49.5234H395.069C394.805 43.3711 390.85 39.3721 385.225 39.3721C379.6 39.3721 375.513 43.5029 375.074 49.5234Z" fill="#FFFFFF"/>
<path d="M37.5 0C39.7036 0 41.4123 1.80884 41.5456 4.00839L44.7249 56.4608C44.8794 59.011 46.9927 61 49.5475 61C52.4464 61 54.6927 58.465 54.3439 55.5871L49.2354 13.4421C48.5458 7.7529 53.937 3.34853 58.6469 6.61346C68.5207 13.458 75 24.9624 75 38C75 41.9683 74.3978 45.794 73.2842 49.39C73.2673 49.4446 73.3081 49.5 73.3652 49.5C73.4276 49.5 73.4686 49.5652 73.4415 49.6214C73.1873 50.148 72.9329 50.6657 72.6826 51.1768C71.5832 54.1901 70.116 57.0221 68.3389 59.6201C60.3779 74.3053 53.7172 82.2197 44.2103 95.6978C40.9391 100.336 33.9873 100.382 30.681 95.7698C20.5041 81.5718 13.9037 73.6091 6.11914 58.8066C4.622 56.4927 3.36714 54.004 2.3916 51.376C2.11591 50.801 1.83733 50.2165 1.5571 49.6214C1.53051 49.5649 1.57172 49.5 1.63412 49.5C1.69159 49.5 1.73257 49.4443 1.71557 49.3894C0.602083 45.7936 0 41.9681 0 38C0 24.9628 6.47891 13.4585 16.3521 6.61384C21.062 3.34874 26.4533 7.75301 25.7638 13.4423L20.656 55.5872C20.3072 58.465 22.5535 61 25.4524 61C28.0073 61 30.1205 59.0109 30.2751 56.4607L33.4534 4.00937C33.5867 1.80925 35.2958 0 37.5 0Z" fill="#FFFFFF"/>
</svg>
