<svg width="100" height="100" viewBox="0 0 100 100" fill="none" xmlns="http://www.w3.org/2000/svg">
<path d="M49.5 0C51.7036 0 53.4123 1.80884 53.5456 4.00839L56.7249 56.4608C56.8794 59.011 58.9927 61 61.5475 61C64.4464 61 66.6927 58.465 66.3439 55.5871L61.2354 13.4421C60.5458 7.7529 65.937 3.34853 70.6469 6.61346C80.5207 13.458 87 24.9624 87 38C87 41.9683 86.3978 45.794 85.2842 49.39C85.2673 49.4446 85.3081 49.5 85.3652 49.5C85.4276 49.5 85.4686 49.5652 85.4415 49.6214C85.1873 50.148 84.9329 50.6657 84.6826 51.1768C83.5832 54.1901 82.116 57.0221 80.3389 59.6201C72.3779 74.3053 65.7172 82.2197 56.2103 95.6978C52.9391 100.336 45.9873 100.382 42.681 95.7698C32.5041 81.5718 25.9037 73.6091 18.1191 58.8066C16.622 56.4927 15.3671 54.004 14.3916 51.376C14.1159 50.801 13.8373 50.2165 13.5571 49.6214C13.5305 49.5649 13.5717 49.5 13.6341 49.5C13.6916 49.5 13.7326 49.4443 13.7156 49.3894C12.6021 45.7936 12 41.9681 12 38C12 24.9628 18.4789 13.4585 28.3521 6.61384C33.062 3.34874 38.4533 7.75301 37.7638 13.4423L32.656 55.5872C32.3072 58.465 34.5535 61 37.4524 61C40.0073 61 42.1205 59.0109 42.2751 56.4607L45.4534 4.00937C45.5867 1.80925 47.2958 0 49.5 0Z" fill="#FA5268"/>
</svg>
